<svg width="247" height="55" viewBox="0 0 247 55" fill="none" xmlns="http://www.w3.org/2000/svg">
<path d="M59.848 25.196C58.4107 25.196 57.1227 24.9627 55.984 24.496C54.8453 24.0293 53.9307 23.3387 53.24 22.424C52.568 21.5093 52.2133 20.408 52.176 19.12H57.272C57.3467 19.848 57.5987 20.408 58.028 20.8C58.4573 21.1733 59.0173 21.36 59.708 21.36C60.4173 21.36 60.9773 21.2013 61.388 20.884C61.7987 20.548 62.004 20.0907 62.004 19.512C62.004 19.0267 61.836 18.6253 61.5 18.308C61.1827 17.9907 60.7813 17.7293 60.296 17.524C59.8293 17.3187 59.1573 17.0853 58.28 16.824C57.0107 16.432 55.9747 16.04 55.172 15.648C54.3693 15.256 53.6787 14.6773 53.1 13.912C52.5213 13.1467 52.232 12.148 52.232 10.916C52.232 9.08667 52.8947 7.65867 54.22 6.632C55.5453 5.58667 57.272 5.064 59.4 5.064C61.5653 5.064 63.3107 5.58667 64.636 6.632C65.9613 7.65867 66.6707 9.096 66.764 10.944H61.584C61.5467 10.3093 61.3133 9.81467 60.884 9.46C60.4547 9.08667 59.904 8.9 59.232 8.9C58.6533 8.9 58.1867 9.05867 57.832 9.376C57.4773 9.67467 57.3 10.1133 57.3 10.692C57.3 11.3267 57.5987 11.8213 58.196 12.176C58.7933 12.5307 59.7267 12.9133 60.996 13.324C62.2653 13.7533 63.292 14.164 64.076 14.556C64.8787 14.948 65.5693 15.5173 66.148 16.264C66.7267 17.0107 67.016 17.972 67.016 19.148C67.016 20.268 66.7267 21.2853 66.148 22.2C65.588 23.1147 64.7667 23.8427 63.684 24.384C62.6013 24.9253 61.3227 25.196 59.848 25.196ZM81.4706 20.94V25H79.0346C77.2986 25 75.9452 24.58 74.9746 23.74C74.0039 22.8813 73.5186 21.4907 73.5186 19.568V13.352H71.6146V9.376H73.5186V5.568H78.3066V9.376H81.4426V13.352H78.3066V19.624C78.3066 20.0907 78.4186 20.4267 78.6426 20.632C78.8666 20.8373 79.2399 20.94 79.7626 20.94H81.4706ZM89.3456 7.752C88.5056 7.752 87.8149 7.50933 87.2736 7.024C86.7509 6.52 86.4896 5.904 86.4896 5.176C86.4896 4.42933 86.7509 3.81333 87.2736 3.328C87.8149 2.824 88.5056 2.572 89.3456 2.572C90.1669 2.572 90.8389 2.824 91.3616 3.328C91.9029 3.81333 92.1736 4.42933 92.1736 5.176C92.1736 5.904 91.9029 6.52 91.3616 7.024C90.8389 7.50933 90.1669 7.752 89.3456 7.752ZM91.7256 9.376V25H86.9376V9.376H91.7256ZM97.0434 17.188C97.0434 15.564 97.37 14.1453 98.0234 12.932C98.6954 11.7187 99.6194 10.7853 100.795 10.132C101.99 9.47867 103.353 9.152 104.883 9.152C106.843 9.152 108.477 9.66533 109.783 10.692C111.109 11.7187 111.977 13.1653 112.387 15.032H107.291C106.862 13.8373 106.031 13.24 104.799 13.24C103.922 13.24 103.222 13.5853 102.699 14.276C102.177 14.948 101.915 15.9187 101.915 17.188C101.915 18.4573 102.177 19.4373 102.699 20.128C103.222 20.8 103.922 21.136 104.799 21.136C106.031 21.136 106.862 20.5387 107.291 19.344H112.387C111.977 21.1733 111.109 22.6107 109.783 23.656C108.458 24.7013 106.825 25.224 104.883 25.224C103.353 25.224 101.99 24.8973 100.795 24.244C99.6194 23.5907 98.6954 22.6573 98.0234 21.444C97.37 20.2307 97.0434 18.812 97.0434 17.188ZM127.296 25L122.536 18.448V25H117.748V4.28H122.536V15.732L127.268 9.376H133.176L126.68 17.216L133.232 25H127.296ZM152.585 16.936C152.585 17.384 152.557 17.8507 152.501 18.336H141.665C141.74 19.3067 142.048 20.0533 142.589 20.576C143.149 21.08 143.83 21.332 144.633 21.332C145.828 21.332 146.658 20.828 147.125 19.82H152.221C151.96 20.8467 151.484 21.7707 150.793 22.592C150.121 23.4133 149.272 24.0573 148.245 24.524C147.218 24.9907 146.07 25.224 144.801 25.224C143.27 25.224 141.908 24.8973 140.713 24.244C139.518 23.5907 138.585 22.6573 137.913 21.444C137.241 20.2307 136.905 18.812 136.905 17.188C136.905 15.564 137.232 14.1453 137.885 12.932C138.557 11.7187 139.49 10.7853 140.685 10.132C141.88 9.47867 143.252 9.152 144.801 9.152C146.313 9.152 147.657 9.46933 148.833 10.104C150.009 10.7387 150.924 11.644 151.577 12.82C152.249 13.996 152.585 15.368 152.585 16.936ZM147.685 15.676C147.685 14.8547 147.405 14.2013 146.845 13.716C146.285 13.2307 145.585 12.988 144.745 12.988C143.942 12.988 143.261 13.2213 142.701 13.688C142.16 14.1547 141.824 14.8173 141.693 15.676H147.685ZM162.699 11.98C163.259 11.1213 163.959 10.4493 164.799 9.964C165.639 9.46 166.572 9.208 167.599 9.208V14.276H166.283C165.088 14.276 164.192 14.5373 163.595 15.06C162.998 15.564 162.699 16.46 162.699 17.748V25H157.911V9.376H162.699V11.98ZM199.736 5.344L194.612 25H188.816L185.68 12.064L182.432 25H176.636L171.652 5.344H176.776L179.604 19.652L183.104 5.344H188.368L191.728 19.652L194.584 5.344H199.736ZM217.173 21.528H209.837L208.661 25H203.649L210.761 5.344H216.305L223.417 25H218.349L217.173 21.528ZM215.941 17.832L213.505 10.636L211.097 17.832H215.941Z" fill="#CBC9C9"/>
<path d="M54.402 33.49V46H52.35V33.49H54.402ZM62.1001 35.92C62.8801 35.92 63.5761 36.082 64.1881 36.406C64.8121 36.73 65.2981 37.21 65.6461 37.846C65.9941 38.482 66.1681 39.25 66.1681 40.15V46H64.1341V40.456C64.1341 39.568 63.9121 38.89 63.4681 38.422C63.0241 37.942 62.4181 37.702 61.6501 37.702C60.8821 37.702 60.2701 37.942 59.8141 38.422C59.3701 38.89 59.1481 39.568 59.1481 40.456V46H57.0961V36.082H59.1481V37.216C59.4841 36.808 59.9101 36.49 60.4261 36.262C60.9541 36.034 61.5121 35.92 62.1001 35.92ZM72.3855 46.162C71.6055 46.162 70.9035 46.024 70.2795 45.748C69.6675 45.46 69.1815 45.076 68.8215 44.596C68.4615 44.104 68.2695 43.558 68.2455 42.958H70.3695C70.4055 43.378 70.6035 43.732 70.9635 44.02C71.3355 44.296 71.7975 44.434 72.3495 44.434C72.9255 44.434 73.3695 44.326 73.6815 44.11C74.0055 43.882 74.1675 43.594 74.1675 43.246C74.1675 42.874 73.9875 42.598 73.6275 42.418C73.2795 42.238 72.7215 42.04 71.9535 41.824C71.2095 41.62 70.6035 41.422 70.1355 41.23C69.6675 41.038 69.2595 40.744 68.9115 40.348C68.5755 39.952 68.4075 39.43 68.4075 38.782C68.4075 38.254 68.5635 37.774 68.8755 37.342C69.1875 36.898 69.6315 36.55 70.2075 36.298C70.7955 36.046 71.4675 35.92 72.2235 35.92C73.3515 35.92 74.2575 36.208 74.9415 36.784C75.6375 37.348 76.0095 38.122 76.0575 39.106H74.0055C73.9695 38.662 73.7895 38.308 73.4655 38.044C73.1415 37.78 72.7035 37.648 72.1515 37.648C71.6115 37.648 71.1975 37.75 70.9095 37.954C70.6215 38.158 70.4775 38.428 70.4775 38.764C70.4775 39.028 70.5735 39.25 70.7655 39.43C70.9575 39.61 71.1915 39.754 71.4675 39.862C71.7435 39.958 72.1515 40.084 72.6915 40.24C73.4115 40.432 73.9995 40.63 74.4555 40.834C74.9235 41.026 75.3255 41.314 75.6615 41.698C75.9975 42.082 76.1715 42.592 76.1835 43.228C76.1835 43.792 76.0275 44.296 75.7155 44.74C75.4035 45.184 74.9595 45.532 74.3835 45.784C73.8195 46.036 73.1535 46.162 72.3855 46.162ZM80.7948 37.756V43.246C80.7948 43.618 80.8788 43.888 81.0468 44.056C81.2268 44.212 81.5268 44.29 81.9468 44.29H83.2068V46H81.5868C80.6628 46 79.9548 45.784 79.4628 45.352C78.9708 44.92 78.7248 44.218 78.7248 43.246V37.756H77.5548V36.082H78.7248V33.616H80.7948V36.082H83.2068V37.756H80.7948ZM84.414 40.996C84.414 40 84.618 39.118 85.026 38.35C85.446 37.582 86.01 36.988 86.718 36.568C87.438 36.136 88.23 35.92 89.094 35.92C89.874 35.92 90.552 36.076 91.128 36.388C91.716 36.688 92.184 37.066 92.532 37.522V36.082H94.602V46H92.532V44.524C92.184 44.992 91.71 45.382 91.11 45.694C90.51 46.006 89.826 46.162 89.058 46.162C88.206 46.162 87.426 45.946 86.718 45.514C86.01 45.07 85.446 44.458 85.026 43.678C84.618 42.886 84.414 41.992 84.414 40.996ZM92.532 41.032C92.532 40.348 92.388 39.754 92.1 39.25C91.824 38.746 91.458 38.362 91.002 38.098C90.546 37.834 90.054 37.702 89.526 37.702C88.998 37.702 88.506 37.834 88.05 38.098C87.594 38.35 87.222 38.728 86.934 39.232C86.658 39.724 86.52 40.312 86.52 40.996C86.52 41.68 86.658 42.28 86.934 42.796C87.222 43.312 87.594 43.708 88.05 43.984C88.518 44.248 89.01 44.38 89.526 44.38C90.054 44.38 90.546 44.248 91.002 43.984C91.458 43.72 91.824 43.336 92.1 42.832C92.388 42.316 92.532 41.716 92.532 41.032ZM102.301 35.92C103.081 35.92 103.777 36.082 104.389 36.406C105.013 36.73 105.499 37.21 105.847 37.846C106.195 38.482 106.369 39.25 106.369 40.15V46H104.335V40.456C104.335 39.568 104.113 38.89 103.669 38.422C103.225 37.942 102.619 37.702 101.851 37.702C101.083 37.702 100.471 37.942 100.015 38.422C99.5713 38.89 99.3493 39.568 99.3493 40.456V46H97.2973V36.082H99.3493V37.216C99.6853 36.808 100.111 36.49 100.627 36.262C101.155 36.034 101.713 35.92 102.301 35.92ZM111.381 37.756V43.246C111.381 43.618 111.465 43.888 111.633 44.056C111.813 44.212 112.113 44.29 112.533 44.29H113.793V46H112.173C111.249 46 110.541 45.784 110.049 45.352C109.557 44.92 109.311 44.218 109.311 43.246V37.756H108.141V36.082H109.311V33.616H111.381V36.082H113.793V37.756H111.381ZM124.482 46.126C123.642 46.126 122.886 45.982 122.214 45.694C121.542 45.394 121.014 44.974 120.63 44.434C120.246 43.894 120.054 43.264 120.054 42.544H122.25C122.298 43.084 122.508 43.528 122.88 43.876C123.264 44.224 123.798 44.398 124.482 44.398C125.19 44.398 125.742 44.23 126.138 43.894C126.534 43.546 126.732 43.102 126.732 42.562C126.732 42.142 126.606 41.8 126.354 41.536C126.114 41.272 125.808 41.068 125.436 40.924C125.076 40.78 124.572 40.624 123.924 40.456C123.108 40.24 122.442 40.024 121.926 39.808C121.422 39.58 120.99 39.232 120.63 38.764C120.27 38.296 120.09 37.672 120.09 36.892C120.09 36.172 120.27 35.542 120.63 35.002C120.99 34.462 121.494 34.048 122.142 33.76C122.79 33.472 123.54 33.328 124.392 33.328C125.604 33.328 126.594 33.634 127.362 34.246C128.142 34.846 128.574 35.674 128.658 36.73H126.39C126.354 36.274 126.138 35.884 125.742 35.56C125.346 35.236 124.824 35.074 124.176 35.074C123.588 35.074 123.108 35.224 122.736 35.524C122.364 35.824 122.178 36.256 122.178 36.82C122.178 37.204 122.292 37.522 122.52 37.774C122.76 38.014 123.06 38.206 123.42 38.35C123.78 38.494 124.272 38.65 124.896 38.818C125.724 39.046 126.396 39.274 126.912 39.502C127.44 39.73 127.884 40.084 128.244 40.564C128.616 41.032 128.802 41.662 128.802 42.454C128.802 43.09 128.628 43.69 128.28 44.254C127.944 44.818 127.446 45.274 126.786 45.622C126.138 45.958 125.37 46.126 124.482 46.126ZM133.617 37.756V43.246C133.617 43.618 133.701 43.888 133.869 44.056C134.049 44.212 134.349 44.29 134.769 44.29H136.029V46H134.409C133.485 46 132.777 45.784 132.285 45.352C131.793 44.92 131.547 44.218 131.547 43.246V37.756H130.377V36.082H131.547V33.616H133.617V36.082H136.029V37.756H133.617ZM138.964 34.768C138.592 34.768 138.28 34.642 138.028 34.39C137.776 34.138 137.65 33.826 137.65 33.454C137.65 33.082 137.776 32.77 138.028 32.518C138.28 32.266 138.592 32.14 138.964 32.14C139.324 32.14 139.63 32.266 139.882 32.518C140.134 32.77 140.26 33.082 140.26 33.454C140.26 33.826 140.134 34.138 139.882 34.39C139.63 34.642 139.324 34.768 138.964 34.768ZM139.972 36.082V46H137.92V36.082H139.972ZM141.982 41.032C141.982 40.012 142.186 39.118 142.594 38.35C143.014 37.57 143.59 36.97 144.322 36.55C145.054 36.13 145.894 35.92 146.842 35.92C148.042 35.92 149.032 36.208 149.812 36.784C150.604 37.348 151.138 38.158 151.414 39.214H149.2C149.02 38.722 148.732 38.338 148.336 38.062C147.94 37.786 147.442 37.648 146.842 37.648C146.002 37.648 145.33 37.948 144.826 38.548C144.334 39.136 144.088 39.964 144.088 41.032C144.088 42.1 144.334 42.934 144.826 43.534C145.33 44.134 146.002 44.434 146.842 44.434C148.03 44.434 148.816 43.912 149.2 42.868H151.414C151.126 43.876 150.586 44.68 149.794 45.28C149.002 45.868 148.018 46.162 146.842 46.162C145.894 46.162 145.054 45.952 144.322 45.532C143.59 45.1 143.014 44.5 142.594 43.732C142.186 42.952 141.982 42.052 141.982 41.032ZM157.383 41.05L161.955 46H159.183L155.511 41.734V46H153.459V32.68H155.511V40.42L159.111 36.082H161.955L157.383 41.05ZM172.516 40.798C172.516 41.17 172.492 41.506 172.444 41.806H164.866C164.926 42.598 165.22 43.234 165.748 43.714C166.276 44.194 166.924 44.434 167.692 44.434C168.796 44.434 169.576 43.972 170.032 43.048H172.246C171.946 43.96 171.4 44.71 170.608 45.298C169.828 45.874 168.856 46.162 167.692 46.162C166.744 46.162 165.892 45.952 165.136 45.532C164.392 45.1 163.804 44.5 163.372 43.732C162.952 42.952 162.742 42.052 162.742 41.032C162.742 40.012 162.946 39.118 163.354 38.35C163.774 37.57 164.356 36.97 165.1 36.55C165.856 36.13 166.72 35.92 167.692 35.92C168.628 35.92 169.462 36.124 170.194 36.532C170.926 36.94 171.496 37.516 171.904 38.26C172.312 38.992 172.516 39.838 172.516 40.798ZM170.374 40.15C170.362 39.394 170.092 38.788 169.564 38.332C169.036 37.876 168.382 37.648 167.602 37.648C166.894 37.648 166.288 37.876 165.784 38.332C165.28 38.776 164.98 39.382 164.884 40.15H170.374ZM176.588 37.522C176.888 37.018 177.284 36.628 177.776 36.352C178.28 36.064 178.874 35.92 179.558 35.92V38.044H179.036C178.232 38.044 177.62 38.248 177.2 38.656C176.792 39.064 176.588 39.772 176.588 40.78V46H174.536V36.082H176.588V37.522ZM199.296 33.49V46H197.244V37.432L193.428 46H192.006L188.172 37.432V46H186.12V33.49H188.334L192.726 43.3L197.1 33.49H199.296ZM201.309 40.996C201.309 40 201.513 39.118 201.921 38.35C202.341 37.582 202.905 36.988 203.613 36.568C204.333 36.136 205.125 35.92 205.989 35.92C206.769 35.92 207.447 36.076 208.023 36.388C208.611 36.688 209.079 37.066 209.427 37.522V36.082H211.497V46H209.427V44.524C209.079 44.992 208.605 45.382 208.005 45.694C207.405 46.006 206.721 46.162 205.953 46.162C205.101 46.162 204.321 45.946 203.613 45.514C202.905 45.07 202.341 44.458 201.921 43.678C201.513 42.886 201.309 41.992 201.309 40.996ZM209.427 41.032C209.427 40.348 209.283 39.754 208.995 39.25C208.719 38.746 208.353 38.362 207.897 38.098C207.441 37.834 206.949 37.702 206.421 37.702C205.893 37.702 205.401 37.834 204.945 38.098C204.489 38.35 204.117 38.728 203.829 39.232C203.553 39.724 203.415 40.312 203.415 40.996C203.415 41.68 203.553 42.28 203.829 42.796C204.117 43.312 204.489 43.708 204.945 43.984C205.413 44.248 205.905 44.38 206.421 44.38C206.949 44.38 207.441 44.248 207.897 43.984C208.353 43.72 208.719 43.336 208.995 42.832C209.283 42.316 209.427 41.716 209.427 41.032ZM218.116 41.05L222.688 46H219.916L216.244 41.734V46H214.192V32.68H216.244V40.42L219.844 36.082H222.688L218.116 41.05ZM233.249 40.798C233.249 41.17 233.225 41.506 233.177 41.806H225.599C225.659 42.598 225.953 43.234 226.481 43.714C227.009 44.194 227.657 44.434 228.425 44.434C229.529 44.434 230.309 43.972 230.765 43.048H232.979C232.679 43.96 232.133 44.71 231.341 45.298C230.561 45.874 229.589 46.162 228.425 46.162C227.477 46.162 226.625 45.952 225.869 45.532C225.125 45.1 224.537 44.5 224.105 43.732C223.685 42.952 223.475 42.052 223.475 41.032C223.475 40.012 223.679 39.118 224.087 38.35C224.507 37.57 225.089 36.97 225.833 36.55C226.589 36.13 227.453 35.92 228.425 35.92C229.361 35.92 230.195 36.124 230.927 36.532C231.659 36.94 232.229 37.516 232.637 38.26C233.045 38.992 233.249 39.838 233.249 40.798ZM231.107 40.15C231.095 39.394 230.825 38.788 230.297 38.332C229.769 37.876 229.115 37.648 228.335 37.648C227.627 37.648 227.021 37.876 226.517 38.332C226.013 38.776 225.713 39.382 225.617 40.15H231.107ZM237.32 37.522C237.62 37.018 238.016 36.628 238.508 36.352C239.012 36.064 239.606 35.92 240.29 35.92V38.044H239.768C238.964 38.044 238.352 38.248 237.932 38.656C237.524 39.064 237.32 39.772 237.32 40.78V46H235.268V36.082H237.32V37.522Z" fill="#CBC9C9"/>
<path d="M27.5434 20.8926L23.1253 20.1668C20.2207 19.6228 18.2847 19.0183 17.3171 18.3533C16.3457 17.6887 15.86 16.7213 15.86 15.5734C15.86 14.3035 16.4652 13.2757 17.6756 12.4897C18.785 11.7329 20.3422 11.369 22.3491 11.3447V3C19.3053 3.01164 16.5565 3.55567 14.1027 4.63207C11.6226 5.7198 9.62537 7.29171 8.17697 9.2896C6.72857 11.2875 6 13.6987 6 16.4796C6 20.0465 6.97143 22.7663 8.96577 24.64C10.9028 26.5137 13.8054 27.8421 17.6785 28.5087L22.1568 29.2946C24.3959 29.6575 26.0299 30.0806 27.1801 30.5036C28.27 30.9888 28.9957 31.5312 29.4192 32.1357C29.7825 32.7405 29.9642 33.466 29.9642 34.3121C29.9642 35.7026 29.2987 36.7302 28.0271 37.5142C26.7555 38.2982 25.0623 38.6621 22.9437 38.6621C22.7494 38.6621 22.5493 38.6621 22.3608 38.6485V46.9932C22.5939 46.9932 22.83 47 23.069 47C26.3971 47 29.3026 46.4566 31.8439 45.4291C34.3249 44.4015 36.3222 42.8296 37.7696 40.7715C39.1617 38.7164 39.8883 36.2372 39.8883 33.2758C39.8893 26.4584 35.7733 22.286 27.5434 20.8926Z" fill="#86EFAC"/>
<path d="M24.0423 38.6252H22.2947V46.9981H24.0423V38.6252Z" fill="#86EFAC"/>
<path d="M24.1045 3H22.3569V11.3729H24.1045V3Z" fill="#86EFAC"/>
<path d="M35.8093 11.3719C38.1237 11.3719 40 9.49778 40 7.18595C40 4.87411 38.1237 3 35.8093 3C33.4948 3 31.6185 4.87411 31.6185 7.18595C31.6185 9.49778 33.4948 11.3719 35.8093 11.3719Z" fill="#86EFAC"/>
<path d="M10.59 46.9971C12.9045 46.9971 14.7807 45.123 14.7807 42.8111C14.7807 40.4993 12.9045 38.6252 10.59 38.6252C8.27551 38.6252 6.39926 40.4993 6.39926 42.8111C6.39926 45.123 8.27551 46.9971 10.59 46.9971Z" fill="#86EFAC"/>
</svg>
