<svg width="121" height="120" viewBox="0 0 121 120" fill="none" xmlns="http://www.w3.org/2000/svg">
<path d="M71.8438 50.0719L61.0956 48.3187C54.0294 47.0047 49.3193 45.5445 46.9655 43.9383C44.6022 42.3328 43.4206 39.9961 43.4206 37.2234C43.4206 34.1562 44.8929 31.6734 47.8376 29.775C50.5364 27.9469 54.3248 27.068 59.2073 27.0094V6.85312C51.8024 6.88124 45.1151 8.19531 39.1454 10.7953C33.112 13.4227 28.2531 17.2195 24.7294 22.0453C21.2057 26.8711 19.4333 32.6953 19.4333 39.4125C19.4333 48.0281 21.7966 54.5976 26.6484 59.1234C31.3608 63.6492 38.4223 66.8578 47.8447 68.468L58.7394 70.3664C64.1867 71.243 68.1618 72.2648 70.9599 73.2867C73.6115 74.4586 75.3769 75.7687 76.4073 77.2289C77.2911 78.6898 77.7331 80.4422 77.7331 82.4859C77.7331 85.8445 76.1142 88.3266 73.0207 90.2203C69.9272 92.1141 65.8079 92.993 60.6536 92.993C60.181 92.993 59.6941 92.993 59.2357 92.9602V113.116C59.8029 113.116 60.3771 113.133 60.9585 113.133C69.0551 113.133 76.1237 111.82 82.306 109.338C88.3418 106.856 93.2007 103.059 96.722 98.0883C100.109 93.1242 101.876 87.1359 101.876 79.9828C101.879 63.5156 91.8655 53.4375 71.8438 50.0719Z" fill="#86EFAC"/>
<path d="M63.3265 92.9039H59.075V113.128H63.3265V92.9039Z" fill="#86EFAC"/>
<path d="M63 7H58V27H63V7Z" fill="#86EFAC"/>
<path d="M91.9529 27.075C97.5835 27.075 102.148 22.5482 102.148 16.9641C102.148 11.3799 97.5835 6.85312 91.9529 6.85312C86.3222 6.85312 81.7577 11.3799 81.7577 16.9641C81.7577 22.5482 86.3222 27.075 91.9529 27.075Z" fill="#86EFAC"/>
<path d="M30.5997 113.126C36.2304 113.126 40.7949 108.599 40.7949 103.015C40.7949 97.4307 36.2304 92.9039 30.5997 92.9039C24.9691 92.9039 20.4045 97.4307 20.4045 103.015C20.4045 108.599 24.9691 113.126 30.5997 113.126Z" fill="#86EFAC"/>
</svg>
